<svg xmlns="http://www.w3.org/2000/svg" viewBox="0 0 120 120" fill="none">
  <!-- Connections -->
  <g stroke="#1a5c5c" stroke-width="2" stroke-linecap="round">
    <!-- Outer brain shape -->
    <line x1="35" y1="75" x2="30" y2="60"/>
    <line x1="30" y1="60" x2="32" y2="45"/>
    <line x1="32" y1="45" x2="40" y2="33"/>
    <line x1="40" y1="33" x2="52" y2="26"/>
    <line x1="52" y1="26" x2="65" y2="25"/>
    <line x1="65" y1="25" x2="78" y2="30"/>
    <line x1="78" y1="30" x2="87" y2="40"/>
    <line x1="87" y1="40" x2="90" y2="53"/>
    <line x1="90" y1="53" x2="87" y2="65"/>
    <line x1="87" y1="65" x2="78" y2="75"/>
    <line x1="78" y1="75" x2="65" y2="80"/>
    <line x1="65" y1="80" x2="55" y2="82"/>
    <line x1="55" y1="82" x2="55" y2="92"/>
    <!-- Left hemisphere inner -->
    <line x1="30" y1="60" x2="45" y2="55"/>
    <line x1="32" y1="45" x2="45" y2="55"/>
    <line x1="40" y1="33" x2="52" y2="42"/>
    <line x1="52" y1="26" x2="52" y2="42"/>
    <line x1="35" y1="75" x2="45" y2="68"/>
    <line x1="45" y1="55" x2="45" y2="68"/>
    <line x1="45" y1="68" x2="55" y2="82"/>
    <!-- Right hemisphere inner -->
    <line x1="65" y1="25" x2="65" y2="42"/>
    <line x1="78" y1="30" x2="65" y2="42"/>
    <line x1="87" y1="40" x2="75" y2="52"/>
    <line x1="90" y1="53" x2="75" y2="52"/>
    <line x1="87" y1="65" x2="75" y2="68"/>
    <line x1="75" y1="52" x2="75" y2="68"/>
    <line x1="78" y1="75" x2="75" y2="68"/>
    <line x1="65" y1="80" x2="75" y2="68"/>
    <!-- Cross connections -->
    <line x1="52" y1="42" x2="65" y2="42"/>
    <line x1="45" y1="55" x2="60" y2="58"/>
    <line x1="60" y1="58" x2="75" y2="52"/>
    <line x1="45" y1="68" x2="60" y2="58"/>
    <line x1="60" y1="58" x2="75" y2="68"/>
    <line x1="52" y1="42" x2="60" y2="58"/>
    <line x1="65" y1="42" x2="60" y2="58"/>
    <line x1="65" y1="42" x2="75" y2="52"/>
    <line x1="52" y1="42" x2="45" y2="55"/>
    <!-- Stem -->
    <line x1="55" y1="92" x2="60" y2="95"/>
    <line x1="65" y1="80" x2="60" y2="95"/>
  </g>
  <!-- Nodes -->
  <g fill="#1a5c5c">
    <circle cx="35" cy="75" r="3.5"/>
    <circle cx="30" cy="60" r="3.5"/>
    <circle cx="32" cy="45" r="3.5"/>
    <circle cx="40" cy="33" r="3.5"/>
    <circle cx="52" cy="26" r="3.5"/>
    <circle cx="65" cy="25" r="3.5"/>
    <circle cx="78" cy="30" r="3.5"/>
    <circle cx="87" cy="40" r="3.5"/>
    <circle cx="90" cy="53" r="3.5"/>
    <circle cx="87" cy="65" r="3.5"/>
    <circle cx="78" cy="75" r="3.5"/>
    <circle cx="65" cy="80" r="3.5"/>
    <circle cx="55" cy="82" r="3.5"/>
    <circle cx="45" cy="55" r="3.5"/>
    <circle cx="52" cy="42" r="3.5"/>
    <circle cx="65" cy="42" r="3.5"/>
    <circle cx="75" cy="52" r="3.5"/>
    <circle cx="60" cy="58" r="4"/>
    <circle cx="45" cy="68" r="3.5"/>
    <circle cx="75" cy="68" r="3.5"/>
    <circle cx="55" cy="92" r="3"/>
    <circle cx="60" cy="95" r="3"/>
  </g>
</svg>
